PathFileType	4	(X/Y/Z)	./resultDataOpenSim/trcMotMarkerGrf/sub06/qtm-04-04.trc
DataRate	CameraRate	NumFrames	NumMarkers	Units	OrigDataRate	OrigDataStartFrame	OrigNumFrames
250.000000	250.000000	9	24	m	250.000000	403	536
Frame#	Time	L.Toe.Tip			R.Toe.Tip			L.Ankle.Lat			R.Ankle.Lat			L.Ankle.Med			R.Ankle.Med			L.Heel			R.Heel			L.Knee.Lat			R.Knee.Lat			L.Knee.Med			R.Knee.Med			L.Thigh.Upper			R.Thigh.Upper			L.ASIS			R.ASIS			V.Sacral			L.Acromium			R.Acromium			C7			L.Elbow			R.Elbow			L.Wrist.Lat			R.Wrist.Lat
		X1	Y1	Z1	X2	Y2	Z2	X3	Y3	Z3	X4	Y4	Z4	X5	Y5	Z5	X6	Y6	Z6	X7	Y7	Z7	X8	Y8	Z8	X9	Y9	Z9	X10	Y10	Z10	X11	Y11	Z11	X12	Y12	Z12	X13	Y13	Z13	X14	Y14	Z14	X15	Y15	Z15	X16	Y16	Z16	X17	Y17	Z17	X18	Y18	Z18	X19	Y19	Z19	X20	Y20	Z20	X21	Y21	Z21	X22	Y22	Z22	X23	Y23	Z23	X24	Y24	Z24

403	1.608	1.5950365	0.12584763	-0.090451738	0.90714552	0.032523527	0.12496326	1.4710691	0.09521345	-0.10113489	0.77566397	0.08235998	0.14461505	1.4714534	0.10721298	-0.016881891	0.80340254	0.096457357	0.057781211	1.4245325	0.030777154	-0.055781827	0.71880853	0.072488428	0.083974037	1.3508067	0.44456329	-0.090613124	0.98663449	0.41583116	0.16931533	1.3407398	0.42929139	0.032587178	0.95813941	0.41856951	0.039922997	1.147969	0.77501461	-0.12681027	1.0770075	0.76713608	0.22406786	1.2111878	0.82102885	-0.07163796	1.2022389	0.81118457	0.17674631	1.0221043	0.88921036	0.050464565	1.0974743	1.2874843	-0.14519622	1.1426524	1.29983	0.21542583	1.0435901	1.3287418	0.041794221	0.99705197	0.99267536	-0.17162098	1.1826559	0.98501849	0.31445967	1.0521568	0.76599963	-0.2411529	1.4172979	0.95039782	0.23925654
404	1.612	1.6005089	0.12349641	-0.088871302	0.90746159	0.032452918	0.12499377	1.4764058	0.093310419	-0.10041702	0.7767919	0.084047792	0.14497694	1.4763766	0.10540114	-0.016232325	0.80460844	0.097900627	0.058128013	1.4292879	0.02909653	-0.055417892	0.71968923	0.075179661	0.08448562	1.3575543	0.44383439	-0.090551655	0.99199456	0.41510382	0.1690501	1.3471149	0.42864218	0.032507181	0.96388689	0.4178127	0.039640101	1.1551651	0.77428142	-0.12733183	1.0838166	0.76590593	0.22308848	1.2182159	0.81997636	-0.071994154	1.2086714	0.81008069	0.17641182	1.0292774	0.88807502	0.049576892	1.1036848	1.286304	-0.14606567	1.1488545	1.2988499	0.21453461	1.0498039	1.3276125	0.040879407	1.0031452	0.9915523	-0.17173221	1.1884911	0.98393845	0.31350613	1.0571161	0.76475318	-0.24162626	1.4229584	0.94854883	0.2382676
405	1.616	1.6053313	0.12073865	-0.087103859	0.90759559	0.032505252	0.12512758	1.4812335	0.091149321	-0.099665428	0.77802361	0.085844947	0.14538332	1.4806451	0.10334397	-0.015550693	0.80590462	0.099456683	0.058519814	1.4331773	0.027496915	-0.055037916	0.72066034	0.078039774	0.08506691	1.3643076	0.44311417	-0.090534223	0.99746973	0.41438008	0.16878348	1.3535708	0.42804631	0.032346838	0.96974175	0.41704663	0.039344914	1.1623741	0.77368671	-0.12788079	1.0906941	0.76473324	0.2222574	1.2253048	0.81897936	-0.072375106	1.2151771	0.80903207	0.17607568	1.0361722	0.8870494	0.048679514	1.1099637	1.2851816	-0.14694947	1.1550709	1.2979344	0.21360093	1.0560551	1.3265088	0.03993185	1.0092781	0.99049545	-0.17188226	1.1942035	0.98290253	0.31253405	1.0622073	0.76357977	-0.24208824	1.4285403	0.94665956	0.23731169
406	1.62	1.6095608	0.11758537	-0.085172368	0.90733858	0.032786301	0.12544718	1.4855426	0.088750964	-0.098875672	0.77936016	0.087760689	0.14582721	1.4843242	0.10103185	-0.014825821	0.80730257	0.10112725	0.058958982	1.4360956	0.026241638	-0.054751665	0.72176862	0.081058435	0.085680923	1.3710432	0.44240982	-0.090554208	1.0030895	0.41364871	0.16852309	1.3600884	0.42751609	0.032128293	0.97575904	0.41626101	0.039048966	1.169605	0.77320651	-0.12843345	1.0978305	0.76354821	0.22141445	1.2324577	0.81804721	-0.072777724	1.2217521	0.80802582	0.17573463	1.0429839	0.88610444	0.047808661	1.1163085	1.2841155	-0.14784815	1.1612969	1.2970807	0.21262808	1.0623415	1.3254288	0.038954308	1.015451	0.98950919	-0.17207565	1.1998319	0.9819445	0.31158313	1.0674331	0.76247988	-0.2425484	1.4340409	0.94473537	0.23640356
407	1.624	1.613322	0.11389711	-0.083063115	0.90674744	0.033234828	0.12592036	1.4893033	0.08616824	-0.098053142	0.78081183	0.089796808	0.14630429	1.487506	0.098477335	-0.014037508	0.80883837	0.10290347	0.05943969	1.4380914	0.025474875	-0.054615573	0.72308099	0.084207664	0.08628295	1.3777316	0.44171448	-0.090609599	1.0089222	0.41288801	0.16828399	1.3666574	0.42705084	0.03187506	0.98203456	0.4154537	0.038786031	1.1768699	0.7728175	-0.12898077	1.1052028	0.76234247	0.22050254	1.2396738	0.81719069	-0.073198832	1.2283776	0.80704661	0.17538649	1.0498069	0.88521135	0.046973128	1.1227232	1.2831056	-0.14877106	1.1675362	1.29628	0.21161591	1.0686647	1.3243735	0.037945155	1.0216688	0.98859105	-0.17230819	1.2053925	0.98107462	0.31066746	1.072796	0.76145227	-0.24301115	1.4394602	0.94278023	0.23555097
408	1.628	1.6168695	0.10932962	-0.080758485	0.90643581	0.033479088	0.12629101	1.4925582	0.083531213	-0.097257604	0.78239664	0.091944592	0.14681537	1.4903318	0.095772076	-0.013182123	0.810577	0.10476122	0.059946525	1.4394233	0.025180333	-0.054534572	0.72465257	0.087454174	0.086855382	1.3843472	0.44101224	-0.090692141	1.0150099	0.41208228	0.16807106	1.3732748	0.42662535	0.031615387	0.98859487	0.41462903	0.03857512	1.1841869	0.77249851	-0.1295317	1.1127069	0.76113452	0.21953318	1.2469415	0.81641848	-0.073635679	1.2350242	0.80607674	0.17504066	1.0566615	0.88436047	0.046152732	1.1292151	1.2821508	-0.14973017	1.1737941	1.2955253	0.21056749	1.0750239	1.3233481	0.036897073	1.0279332	0.98773475	-0.1725743	1.2108936	0.9802909	0.30978418	1.0782986	0.76049463	-0.24347468	1.4447972	0.94079163	0.23474712
409	1.632	1.620571	0.10349717	-0.078361505	0.90712876	0.033146111	0.12626031	1.4954946	0.081069458	-0.096583828	0.78412696	0.094190912	0.14737162	1.4930626	0.093121373	-0.012303595	0.81257077	0.10667594	0.060471151	1.4404645	0.025345632	-0.05433824	0.72646653	0.090810613	0.087433174	1.3908819	0.44029053	-0.090776256	1.0213429	0.41122901	0.16787174	1.3799427	0.42619035	0.031382119	0.99536164	0.41377449	0.038380511	1.1915719	0.77222873	-0.13010531	1.1201946	0.75995725	0.21854543	1.2542379	0.81574202	-0.074083874	1.2416783	0.80509968	0.17470965	1.0635428	0.88357411	0.045352991	1.1357856	1.281247	-0.1507295	1.1800697	1.2948174	0.20948862	1.0814072	1.3223673	0.035799994	1.0342392	0.98693799	-0.17287447	1.2163449	0.97958479	0.30891852	1.0839456	0.75960157	-0.24393996	1.4500501	0.93876313	0.23398223
410	1.636	1.6247314	0.096394308	-0.076223052	0.908832	0.032315263	0.12581853	1.4984223	0.079049065	-0.096077076	0.78600072	0.096527364	0.14799843	1.4960481	0.09078103	-0.011502156	0.81478506	0.1086548	0.061034876	1.4415574	0.02602914	-0.053983207	0.72838707	0.094386961	0.088117328	1.3973535	0.43955889	-0.090813292	1.0278984	0.41033511	0.16766624	1.3866607	0.42568833	0.03119953	1.0022559	0.41285733	0.038158142	1.1990273	0.77199739	-0.13072329	1.1275332	0.75884304	0.21757491	1.2615369	0.81517864	-0.074542186	1.2483835	0.8041308	0.17436628	1.0704649	0.88291052	0.044665216	1.1424278	1.2803882	-0.15176463	1.1863585	1.2941631	0.20838597	1.0877966	1.321456	0.034649156	1.040581	0.98620173	-0.1732161	1.2217553	0.97894008	0.30805434	1.0897406	0.75876553	-0.24441294	1.4552179	0.93669326	0.23325657
411	1.64	1.6293696	0.088660579	-0.074804606	0.91067443	0.031521126	0.12533064	1.501644	0.077613018	-0.095694539	0.78800794	0.098960304	0.14872321	1.4995288	0.08891512	-0.01089111	0.8170676	0.11075638	0.06169451	1.4429102	0.027210102	-0.053600878	0.73026	0.098328545	0.089022706	1.4037997	0.43886363	-0.09074323	1.0346766	0.40941018	0.16744026	1.3934212	0.42508331	0.031065769	1.009316	0.41184032	0.037920331	1.2065367	0.77183045	-0.13139713	1.1347204	0.75779277	0.21663225	1.2688122	0.81474474	-0.075020215	1.2552545	0.80324683	0.17390621	1.0774739	0.88243618	0.044247563	1.1491298	1.2795748	-0.15282945	1.1926584	1.2935705	0.20727213	1.0941864	1.3206439	0.033448081	1.0469575	0.9855228	-0.17361026	1.2271273	0.97833672	0.30718405	1.0956799	0.75798189	-0.24489731	1.4602988	0.93458721	0.23257936
